<?xml version="1.0" standalone="no"?>
<!DOCTYPE svg PUBLIC "-//W3C//DTD SVG 20010904//EN"
 "http://www.w3.org/TR/2001/REC-SVG-20010904/DTD/svg10.dtd">
<svg version="1.0" xmlns="http://www.w3.org/2000/svg"
 width="1000.000000pt" height="1000.000000pt" viewBox="0 0 1000.000000 1000.000000"
 preserveAspectRatio="xMidYMid meet">
<metadata>
Created by potrace 1.11, written by Peter Selinger 2001-2013
</metadata>
<g transform="translate(0.000000,1000.000000) scale(0.100000,-0.100000)"
fill="#000000" stroke="none">
<path d="M0 5000 l0 -5000 5000 0 5000 0 0 5000 0 5000 -5000 0 -5000 0 0
-5000z m6890 2640 l0 -140 165 0 165 0 0 -140 0 -140 140 0 140 0 0 -305 0
-305 140 0 140 0 0 -165 0 -165 165 0 165 0 0 -195 0 -195 -305 0 -305 0 0
195 0 195 -945 0 -945 0 0 -335 0 -335 305 0 305 0 0 -305 0 -305 335 0 335 0
0 305 0 305 305 0 305 0 0 -445 0 -445 -945 0 -945 0 0 -165 0 -165 1085 0
1085 0 0 445 0 445 165 0 165 0 0 -585 0 -585 -165 0 -165 0 0 -165 0 -165
-140 0 -140 0 0 -500 0 -500 -140 0 -140 0 0 -445 0 -445 140 0 140 0 0 -140
0 -140 -140 0 -140 0 0 -165 0 -165 -165 0 -165 0 0 -195 0 -195 -140 0 -140
0 0 -140 0 -140 -195 0 -195 0 0 -165 0 -165 -1250 0 -1250 0 0 165 0 165
-165 0 -165 0 0 140 0 140 -140 0 -140 0 0 195 0 195 -165 0 -165 0 0 165 0
165 -140 0 -140 0 0 140 0 140 140 0 140 0 0 445 0 445 -140 0 -140 0 0 500 0
500 -140 0 -140 0 0 165 0 165 -165 0 -165 0 0 140 0 140 1110 0 1110 0 0 165
0 165 -945 0 -945 0 0 445 0 445 280 0 280 0 0 -305 0 -305 305 0 305 0 0 305
0 305 360 0 360 0 0 335 0 335 -500 0 -500 0 0 165 0 165 140 0 140 0 0 140 0
140 360 0 360 0 0 165 0 165 140 0 140 0 0 140 0 140 165 0 165 0 0 140 0 140
1085 0 1085 0 0 -140z m-4670 -1555 l0 -195 -165 0 -165 0 0 195 0 195 165 0
165 0 0 -195z"/>
<path d="M4110 5165 l0 -445 140 0 140 0 0 280 0 280 445 0 445 0 0 -280 0
-280 165 0 165 0 0 445 0 445 -750 0 -750 0 0 -445z"/>
<path d="M4720 4555 l0 -165 -165 0 -165 0 0 -305 0 -305 -140 0 -140 0 0
-335 0 -335 140 0 140 0 0 -165 0 -165 445 0 445 0 0 165 0 165 -445 0 -445 0
0 335 0 335 165 0 165 0 0 305 0 305 140 0 140 0 0 165 0 165 -140 0 -140 0 0
-165z"/>
<path d="M5890 2055 l0 -165 -890 0 -890 0 0 -140 0 -140 890 0 890 0 0 140 0
140 165 0 165 0 0 165 0 165 -165 0 -165 0 0 -165z"/>
</g>
</svg>
